# xmcd
#
# Track frame offsets: 
#        150
#        15856
#        31807
#        49221
#        65652
#        84001
#        98734
#        125073
#        156139
#
# Disc length: 2486 seconds
#
# Revision: 1
# Processed by: cddbd v1.5.2PL0 Copyright (c) Steve Scherf et al.
# Submitted via: ExactAudioCopyFreeDBPlugin 1.0
#
DISCID=6309b409
DTITLE=Donny Hathaway - Everything is Everything
DYEAR=1970
DGENRE=Soul
TTITLE0=Voices Inside (Everything is Everything)
TTITLE1=Je Vous Aime (I Love You)
TTITLE2=I Believe to My Soul
TTITLE3=Misty
TTITLE4=Sugar Lee
TTITLE5=Tryin' Times
TTITLE6=Thank You Master (For My Soul)
TTITLE7=The Ghetto
TTITLE8=To Be Young, Gifted and Black
EXTD=
EXTT0=
EXTT1=
EXTT2=
EXTT3=
EXTT4=
EXTT5=
EXTT6=
EXTT7=
EXTT8=
PLAYORDER=
